<svg width="70" height="12" viewBox="0 0 70 12" fill="none" xmlns="http://www.w3.org/2000/svg">
<path d="M66.7319 11.7504C65.8839 11.7504 65.2239 11.6064 64.7519 11.3184C64.2799 11.0384 64.0439 10.6424 64.0439 10.1304C64.0439 9.63443 64.3639 9.20243 65.0039 8.83443V8.78643C64.8519 8.69843 64.7119 8.57843 64.5839 8.42643C64.4639 8.27443 64.4039 8.07443 64.4039 7.82643C64.4039 7.64243 64.4639 7.45443 64.5839 7.26243C64.7039 7.06243 64.8759 6.88643 65.0999 6.73443V6.68643C64.8999 6.53443 64.7279 6.33043 64.5839 6.07443C64.4479 5.81843 64.3799 5.51843 64.3799 5.17443C64.3799 4.75043 64.4839 4.38243 64.6919 4.07043C64.9079 3.75843 65.1879 3.51843 65.5319 3.35043C65.8839 3.17443 66.2639 3.08643 66.6719 3.08643C66.9999 3.08643 67.2879 3.13443 67.5359 3.23043H69.9479V4.03443H68.4359C68.5719 4.17043 68.6879 4.34243 68.7839 4.55043C68.8799 4.75843 68.9279 4.97843 68.9279 5.21043C68.9279 5.62643 68.8279 5.98643 68.6279 6.29043C68.4279 6.58643 68.1559 6.81443 67.8119 6.97443C67.4759 7.13443 67.0959 7.21443 66.6719 7.21443C66.5199 7.21443 66.3559 7.19843 66.1799 7.16643C66.0119 7.12643 65.8479 7.07043 65.6879 6.99843C65.5439 7.08643 65.4319 7.18643 65.3519 7.29843C65.2719 7.41043 65.2319 7.53443 65.2319 7.67043C65.2319 7.89443 65.3359 8.06243 65.5439 8.17443C65.7599 8.28643 66.0599 8.34243 66.4439 8.34243H67.7519C68.5039 8.34243 69.0599 8.44643 69.4199 8.65443C69.7879 8.86243 69.9719 9.21443 69.9719 9.71043C69.9719 10.0704 69.8399 10.4064 69.5759 10.7184C69.3119 11.0304 68.9359 11.2784 68.4479 11.4624C67.9679 11.6544 67.3959 11.7504 66.7319 11.7504ZM66.6719 6.55443C67.0479 6.55443 67.3639 6.43043 67.6199 6.18243C67.8839 5.92643 68.0159 5.59043 68.0159 5.17443C68.0159 4.76643 67.8839 4.43843 67.6199 4.19043C67.3639 3.93443 67.0479 3.80643 66.6719 3.80643C66.3039 3.80643 65.9879 3.93443 65.7239 4.19043C65.4599 4.43843 65.3279 4.76643 65.3279 5.17443C65.3279 5.59043 65.4599 5.92643 65.7239 6.18243C65.9879 6.43043 66.3039 6.55443 66.6719 6.55443ZM66.8039 11.0304C67.4839 11.0304 68.0199 10.9104 68.4119 10.6704C68.8039 10.4304 68.9999 10.1624 68.9999 9.86643C68.9999 9.58643 68.8879 9.39843 68.6639 9.30243C68.4479 9.20643 68.1159 9.15843 67.6679 9.15843H66.5279C66.3599 9.15843 66.1999 9.15043 66.0479 9.13443C65.9039 9.11843 65.7679 9.09443 65.6399 9.06243C65.3679 9.21443 65.1759 9.37043 65.0639 9.53043C64.9519 9.69843 64.8959 9.86643 64.8959 10.0344C64.8959 10.3384 65.0559 10.5784 65.3759 10.7544C65.7039 10.9384 66.1799 11.0304 66.8039 11.0304Z" fill="white"/>
<path d="M57.1006 9.06243V3.23043H57.9166L58.0006 4.22643H58.0486C58.3526 3.89843 58.6806 3.62643 59.0326 3.41043C59.3846 3.19443 59.7886 3.08643 60.2446 3.08643C60.9326 3.08643 61.4406 3.28643 61.7686 3.68643C62.0966 4.08643 62.2606 4.67043 62.2606 5.43843V9.06243H61.2766V5.57043C61.2766 5.01843 61.1726 4.61043 60.9646 4.34643C60.7566 4.07443 60.4126 3.93843 59.9326 3.93843C59.5886 3.93843 59.2806 4.02643 59.0086 4.20243C58.7366 4.37843 58.4286 4.64243 58.0846 4.99443V9.06243H57.1006Z" fill="white"/>
<path d="M52.5811 9.06246V4.03446H49.8691V3.23046H53.5651V9.06246H52.5811ZM52.9651 2.00646C52.7411 2.00646 52.5531 1.93846 52.4011 1.80246C52.2491 1.65846 52.1731 1.47046 52.1731 1.23846C52.1731 1.00646 52.2491 0.822459 52.4011 0.686459C52.5531 0.542459 52.7411 0.470459 52.9651 0.470459C53.1891 0.470459 53.3771 0.542459 53.5291 0.686459C53.6811 0.822459 53.7571 1.00646 53.7571 1.23846C53.7571 1.47046 53.6811 1.65846 53.5291 1.80246C53.3771 1.93846 53.1891 2.00646 52.9651 2.00646Z" fill="white"/>
<path d="M42.71 9.06243V3.23043H43.526L43.61 4.22643H43.658C43.962 3.89843 44.29 3.62643 44.642 3.41043C44.994 3.19443 45.398 3.08643 45.854 3.08643C46.542 3.08643 47.05 3.28643 47.378 3.68643C47.706 4.08643 47.87 4.67043 47.87 5.43843V9.06243H46.886V5.57043C46.886 5.01843 46.782 4.61043 46.574 4.34643C46.366 4.07443 46.022 3.93843 45.542 3.93843C45.198 3.93843 44.89 4.02643 44.618 4.20243C44.346 4.37843 44.038 4.64243 43.694 4.99443V9.06243H42.71Z" fill="white"/>
<path d="M36.1504 9.06243V3.23043H36.9664L37.0504 4.61043H37.0864C37.3904 4.13843 37.7664 3.76643 38.2144 3.49443C38.6624 3.22243 39.1544 3.08643 39.6904 3.08643C39.9064 3.08643 40.1064 3.10643 40.2904 3.14643C40.4824 3.17843 40.6664 3.23843 40.8424 3.32643L40.6144 4.17843C40.4144 4.10643 40.2424 4.05443 40.0984 4.02243C39.9544 3.99043 39.7664 3.97443 39.5344 3.97443C39.0944 3.97443 38.6704 4.10243 38.2624 4.35843C37.8624 4.60643 37.4864 5.03443 37.1344 5.64243V9.06243H36.1504Z" fill="white"/>
<path d="M30.1548 9.20643C29.7948 9.20643 29.4628 9.14243 29.1588 9.01443C28.8628 8.87843 28.6228 8.68643 28.4388 8.43843C28.2628 8.19043 28.1748 7.89443 28.1748 7.55043C28.1748 7.11043 28.3148 6.74643 28.5948 6.45843C28.8828 6.16243 29.3388 5.92643 29.9628 5.75043C30.5868 5.57443 31.3988 5.44643 32.3988 5.36643C32.3908 5.10243 32.3348 4.86243 32.2308 4.64643C32.1348 4.42243 31.9748 4.24243 31.7508 4.10643C31.5268 3.97043 31.2268 3.90243 30.8508 3.90243C30.4748 3.90243 30.1068 3.97843 29.7468 4.13043C29.3948 4.27443 29.0828 4.43043 28.8108 4.59843L28.4268 3.92643C28.7228 3.73443 29.0988 3.54643 29.5548 3.36243C30.0188 3.17843 30.5068 3.08643 31.0188 3.08643C31.8188 3.08643 32.4108 3.30643 32.7948 3.74643C33.1868 4.17843 33.3828 4.75843 33.3828 5.48643V9.06243H32.5788L32.4948 8.27043H32.4588C32.1388 8.51843 31.7788 8.73843 31.3788 8.93043C30.9788 9.11443 30.5708 9.20643 30.1548 9.20643ZM30.4188 8.41443C30.7468 8.41443 31.0748 8.33843 31.4028 8.18643C31.7388 8.03443 32.0708 7.82243 32.3988 7.55043V6.01443C31.5668 6.07843 30.9108 6.17843 30.4308 6.31443C29.9588 6.44243 29.6228 6.60643 29.4228 6.80643C29.2308 6.99843 29.1348 7.22243 29.1348 7.47843C29.1348 7.80643 29.2628 8.04643 29.5188 8.19843C29.7828 8.34243 30.0828 8.41443 30.4188 8.41443Z" fill="white"/>
<path d="M23.8242 3.86643C23.3442 3.86643 22.9162 4.02243 22.5402 4.33443C22.1642 4.63843 21.9322 5.07843 21.8442 5.65443H25.5642C25.5242 5.05443 25.3482 4.60643 25.0362 4.31043C24.7242 4.01443 24.3202 3.86643 23.8242 3.86643ZM23.9682 9.20643C23.3842 9.20643 22.8522 9.08643 22.3722 8.84643C21.9002 8.60643 21.5242 8.25843 21.2442 7.80243C20.9642 7.33843 20.8242 6.78243 20.8242 6.13443C20.8242 5.50243 20.9642 4.95843 21.2442 4.50243C21.5242 4.04643 21.8882 3.69843 22.3362 3.45843C22.7922 3.21043 23.2802 3.08643 23.8002 3.08643C24.6402 3.08643 25.2922 3.33843 25.7562 3.84243C26.2282 4.33843 26.4642 4.99843 26.4642 5.82243C26.4642 5.93443 26.4602 6.04243 26.4522 6.14643C26.4442 6.25043 26.4322 6.34243 26.4162 6.42243H21.8202C21.8842 7.07843 22.1242 7.57443 22.5402 7.91043C22.9642 8.24643 23.4802 8.41443 24.0882 8.41443C24.4402 8.41443 24.7562 8.36643 25.0362 8.27043C25.3242 8.16643 25.6002 8.03043 25.8642 7.86243L26.2242 8.51043C25.9362 8.70243 25.6042 8.86643 25.2282 9.00243C24.8602 9.13843 24.4402 9.20643 23.9682 9.20643Z" fill="white"/>
<path d="M17.6962 9.20655C17.0802 9.20655 16.6042 9.03055 16.2682 8.67855C15.9402 8.31855 15.7762 7.79455 15.7762 7.10655V1.32255H13.7002V0.518555H16.7602V7.17856C16.7602 7.60256 16.8642 7.91055 17.0722 8.10255C17.2882 8.29455 17.5682 8.39055 17.9122 8.39055C18.2562 8.39055 18.6202 8.30255 19.0042 8.12655L19.2562 8.85855C18.9842 8.97055 18.7362 9.05456 18.5122 9.11056C18.2882 9.17456 18.0162 9.20655 17.6962 9.20655Z" fill="white"/>
<path d="M11.3577 9.20647C11.0857 9.20647 10.8537 9.11447 10.6617 8.93047C10.4777 8.73847 10.3857 8.49447 10.3857 8.19847C10.3857 7.89447 10.4777 7.65047 10.6617 7.46647C10.8537 7.27447 11.0857 7.17847 11.3577 7.17847C11.6297 7.17847 11.8577 7.27447 12.0417 7.46647C12.2337 7.65047 12.3297 7.89447 12.3297 8.19847C12.3297 8.49447 12.2337 8.73847 12.0417 8.93047C11.8577 9.11447 11.6297 9.20647 11.3577 9.20647Z" fill="white"/>
<path d="M4.37891 3.86643C3.89891 3.86643 3.47091 4.02243 3.09491 4.33443C2.71891 4.63843 2.48691 5.07843 2.39891 5.65443H6.11891C6.07891 5.05443 5.90291 4.60643 5.59091 4.31043C5.27891 4.01443 4.87491 3.86643 4.37891 3.86643ZM4.52291 9.20643C3.93891 9.20643 3.40691 9.08643 2.92691 8.84643C2.45491 8.60643 2.07891 8.25843 1.79891 7.80243C1.51891 7.33843 1.37891 6.78243 1.37891 6.13443C1.37891 5.50243 1.51891 4.95843 1.79891 4.50243C2.07891 4.04643 2.44291 3.69843 2.89091 3.45843C3.34691 3.21043 3.83491 3.08643 4.35491 3.08643C5.19491 3.08643 5.84691 3.33843 6.31091 3.84243C6.78291 4.33843 7.01891 4.99843 7.01891 5.82243C7.01891 5.93443 7.01491 6.04243 7.00691 6.14643C6.99891 6.25043 6.98691 6.34243 6.97091 6.42243H2.37491C2.43891 7.07843 2.67891 7.57443 3.09491 7.91043C3.51891 8.24643 4.03491 8.41443 4.64291 8.41443C4.99491 8.41443 5.31091 8.36643 5.59091 8.27043C5.87891 8.16643 6.15491 8.03043 6.41891 7.86243L6.77891 8.51043C6.49091 8.70243 6.15891 8.86643 5.78291 9.00243C5.41491 9.13843 4.99491 9.20643 4.52291 9.20643Z" fill="white"/>
<path fill-rule="evenodd" clip-rule="evenodd" d="M11.3577 7.67847C11.2181 7.67847 11.1133 7.72197 11.0153 7.82002C10.9408 7.8945 10.8857 8.00299 10.8857 8.19847C10.8857 8.37618 10.9354 8.48983 11.0156 8.57691C11.1101 8.66441 11.2154 8.70647 11.3577 8.70647C11.5038 8.70647 11.6026 8.66252 11.6882 8.57691C11.7775 8.4876 11.8297 8.37502 11.8297 8.19847C11.8297 8.00942 11.775 7.90334 11.6958 7.82746L11.6881 7.8201L11.6807 7.81242C11.5935 7.72133 11.497 7.67847 11.3577 7.67847ZM10.3082 7.11291C10.5941 6.82696 10.9534 6.67847 11.3577 6.67847C11.759 6.67847 12.1158 6.82503 12.3954 7.11292C12.6948 7.40407 12.8297 7.78306 12.8297 8.19847C12.8297 8.61391 12.69 8.98934 12.3953 9.28402C12.1129 9.56642 11.7557 9.70647 11.3577 9.70647C10.9601 9.70647 10.6032 9.56691 10.3158 9.29146L10.3081 9.2841L10.3007 9.27642C10.0171 8.98048 9.88574 8.60754 9.88574 8.19847C9.88574 7.78594 10.0147 7.40644 10.3082 7.11291Z" fill="white"/>
<path fill-rule="evenodd" clip-rule="evenodd" d="M2.65341 3.01843C3.18246 2.73099 3.75214 2.58643 4.35491 2.58643C5.29911 2.58643 6.09668 2.87338 6.67596 3.50074C7.25187 4.10761 7.51891 4.89933 7.51891 5.82243C7.51891 5.9463 7.51448 6.06712 7.50543 6.18478C7.49629 6.30361 7.48205 6.41622 7.4612 6.52048L7.38081 6.92243H2.99108C3.08617 7.18152 3.22853 7.37512 3.40732 7.52004C3.73173 7.77642 4.13388 7.91443 4.64291 7.91443C4.94814 7.91443 5.20679 7.87301 5.42501 7.79873C5.6763 7.70766 5.91799 7.58854 6.15047 7.4406L6.59824 7.15565L7.43991 8.67068L7.05626 8.92645C6.73054 9.14359 6.36206 9.32452 5.95461 9.47202C5.52155 9.63181 5.04173 9.70643 4.52291 9.70643C3.86826 9.70643 3.25871 9.57134 2.7033 9.29364L2.70028 9.29212C2.14518 9.00987 1.70053 8.59775 1.37282 8.06406L1.3708 8.06077C1.03528 7.50477 0.878906 6.85555 0.878906 6.13443C0.878906 5.42698 1.03634 4.78877 1.37282 4.24079C1.69633 3.71393 2.12379 3.30247 2.65341 3.01843ZM4.37891 4.36643C4.01777 4.36643 3.70221 4.48021 3.41419 4.71921L3.40929 4.72327C3.27185 4.8344 3.15593 4.97536 3.06639 5.15443H5.52781C5.45934 4.93537 5.36054 4.78109 5.24678 4.67316C5.04193 4.47882 4.76795 4.36643 4.37891 4.36643Z" fill="white"/>
</svg>
