<svg width="156" height="26" viewBox="0 0 156 26" fill="none" xmlns="http://www.w3.org/2000/svg">
<path d="M148.693 25.8201C146.78 25.8201 145.292 25.4954 144.228 24.8459C143.163 24.2144 142.631 23.3213 142.631 22.1667C142.631 21.0481 143.353 20.0738 144.796 19.2439V19.1357C144.453 18.9372 144.137 18.6666 143.849 18.3238C143.578 17.981 143.443 17.53 143.443 16.9707C143.443 16.5557 143.578 16.1317 143.849 15.6987C144.119 15.2477 144.507 14.8508 145.012 14.508V14.3997C144.561 14.057 144.173 13.5969 143.849 13.0196C143.542 12.4422 143.389 11.7657 143.389 10.9899C143.389 10.0337 143.623 9.20375 144.092 8.50013C144.579 7.7965 145.211 7.25526 145.987 6.87638C146.78 6.47946 147.637 6.28101 148.558 6.28101C149.297 6.28101 149.947 6.38926 150.506 6.60576H155.946V8.41894H152.536C152.842 8.72565 153.104 9.11354 153.321 9.58263C153.537 10.0517 153.645 10.5479 153.645 11.0711C153.645 12.0092 153.42 12.8211 152.969 13.5067C152.518 14.1742 151.904 14.6884 151.128 15.0492C150.371 15.4101 149.514 15.5905 148.558 15.5905C148.215 15.5905 147.845 15.5544 147.448 15.4822C147.069 15.392 146.699 15.2657 146.338 15.1034C146.014 15.3018 145.761 15.5273 145.581 15.7799C145.4 16.0325 145.31 16.3122 145.31 16.6189C145.31 17.124 145.545 17.5029 146.014 17.7555C146.501 18.0081 147.177 18.1344 148.043 18.1344H150.993C152.689 18.1344 153.943 18.3689 154.755 18.838C155.585 19.3071 156 20.1009 156 21.2195C156 22.0314 155.702 22.7891 155.107 23.4927C154.511 24.1964 153.663 24.7556 152.563 25.1706C151.48 25.6036 150.19 25.8201 148.693 25.8201ZM148.558 14.1021C149.406 14.1021 150.118 13.8224 150.695 13.2631C151.291 12.6858 151.589 11.928 151.589 10.9899C151.589 10.0697 151.291 9.33004 150.695 8.77075C150.118 8.19342 149.406 7.90475 148.558 7.90475C147.728 7.90475 147.015 8.19342 146.42 8.77075C145.824 9.33004 145.527 10.0697 145.527 10.9899C145.527 11.928 145.824 12.6858 146.42 13.2631C147.015 13.8224 147.728 14.1021 148.558 14.1021ZM148.855 24.1964C150.389 24.1964 151.598 23.9257 152.482 23.3845C153.366 22.8432 153.808 22.2388 153.808 21.5713C153.808 20.9398 153.555 20.5159 153.05 20.2994C152.563 20.0829 151.814 19.9746 150.804 19.9746H148.233C147.854 19.9746 147.493 19.9566 147.15 19.9205C146.826 19.8844 146.519 19.8303 146.23 19.7581C145.617 20.1009 145.184 20.4527 144.931 20.8135C144.679 21.1924 144.552 21.5713 144.552 21.9502C144.552 22.6358 144.913 23.177 145.635 23.5739C146.375 23.9889 147.448 24.1964 148.855 24.1964Z" fill="#1F1D25"/>
<path d="M126.973 19.7581V6.60576H128.813L129.002 8.85194H129.111C129.796 8.11223 130.536 7.49882 131.33 7.01169C132.124 6.52457 133.035 6.28101 134.063 6.28101C135.615 6.28101 136.76 6.73205 137.5 7.63413C138.24 8.53621 138.61 9.85325 138.61 11.5852V19.7581H136.39V11.8829C136.39 10.6381 136.156 9.71794 135.687 9.12256C135.218 8.50915 134.442 8.20244 133.359 8.20244C132.584 8.20244 131.889 8.4009 131.276 8.79781C130.662 9.19473 129.968 9.7901 129.192 10.5839V19.7581H126.973Z" fill="#1F1D25"/>
<path d="M116.78 19.7581V8.4189H110.664V6.60571H118.999V19.7581H116.78ZM117.646 3.84534C117.141 3.84534 116.717 3.69199 116.374 3.38528C116.031 3.06053 115.86 2.63655 115.86 2.11334C115.86 1.59014 116.031 1.17518 116.374 0.868472C116.717 0.543722 117.141 0.381348 117.646 0.381348C118.151 0.381348 118.575 0.543722 118.918 0.868472C119.261 1.17518 119.432 1.59014 119.432 2.11334C119.432 2.63655 119.261 3.06053 118.918 3.38528C118.575 3.69199 118.151 3.84534 117.646 3.84534Z" fill="#1F1D25"/>
<path d="M94.5186 19.7581V6.60576H96.3588L96.5482 8.85194H96.6565C97.3421 8.11223 98.0818 7.49882 98.8756 7.01169C99.6694 6.52457 100.581 6.28101 101.609 6.28101C103.161 6.28101 104.306 6.73205 105.046 7.63413C105.786 8.53621 106.155 9.85325 106.155 11.5852V19.7581H103.936V11.8829C103.936 10.6381 103.702 9.71794 103.233 9.12256C102.764 8.50915 101.988 8.20244 100.905 8.20244C100.13 8.20244 99.4349 8.4009 98.8215 8.79781C98.2081 9.19473 97.5135 9.7901 96.7377 10.5839V19.7581H94.5186Z" fill="#1F1D25"/>
<path d="M79.7256 19.7581V6.60576H81.5658L81.7553 9.71794H81.8365C82.522 8.65348 83.37 7.81455 84.3803 7.20113C85.3907 6.58771 86.5002 6.28101 87.709 6.28101C88.1961 6.28101 88.6472 6.32611 89.0621 6.41632C89.4951 6.48848 89.9101 6.6238 90.307 6.82226L89.7928 8.74369C89.3418 8.58132 88.9539 8.46405 88.6291 8.39188C88.3044 8.31971 87.8804 8.28363 87.3572 8.28363C86.3649 8.28363 85.4087 8.57229 84.4886 9.14963C83.5865 9.70892 82.7385 10.6741 81.9447 12.0453V19.7581H79.7256Z" fill="#1F1D25"/>
<path d="M66.2036 20.0829C65.3917 20.0829 64.643 19.9385 63.9574 19.6499C63.2899 19.3432 62.7486 18.9102 62.3337 18.3509C61.9367 17.7916 61.7383 17.124 61.7383 16.3482C61.7383 15.356 62.054 14.5351 62.6855 13.8856C63.335 13.218 64.3633 12.6858 65.7706 12.2889C67.1778 11.892 69.0091 11.6033 71.2643 11.4229C71.2462 10.8275 71.1199 10.2863 70.8854 9.79913C70.6689 9.29396 70.3081 8.88802 69.8029 8.58132C69.2977 8.27461 68.6212 8.12125 67.7732 8.12125C66.9253 8.12125 66.0953 8.29265 65.2835 8.63544C64.4896 8.96019 63.786 9.312 63.1726 9.69088L62.3066 8.17538C62.9741 7.74238 63.8221 7.3184 64.8505 6.90344C65.8969 6.48848 66.9974 6.28101 68.1521 6.28101C69.9562 6.28101 71.2913 6.77715 72.1573 7.76944C73.0414 8.74369 73.4834 10.0517 73.4834 11.6935V19.7581H71.6702L71.4808 17.972H71.3996C70.6779 18.5313 69.866 19.0274 68.964 19.4604C68.0619 19.8754 67.1418 20.0829 66.2036 20.0829ZM66.799 18.2967C67.5387 18.2967 68.2784 18.1253 69.0181 17.7826C69.7758 17.4398 70.5246 16.9617 71.2643 16.3482V12.8842C69.3879 13.0286 67.9085 13.2541 66.826 13.5608C65.7616 13.8495 65.0038 14.2193 64.5528 14.6704C64.1198 15.1034 63.9033 15.6085 63.9033 16.1859C63.9033 16.9256 64.1919 17.4668 64.7693 17.8096C65.3647 18.1344 66.0412 18.2967 66.799 18.2967Z" fill="#1F1D25"/>
<path d="M51.9267 8.04007C50.8442 8.04007 49.879 8.39188 49.0311 9.0955C48.1831 9.78108 47.6599 10.7734 47.4614 12.0724H55.8508C55.7606 10.7192 55.3637 9.70892 54.6601 9.04138C53.9564 8.37384 53.0453 8.04007 51.9267 8.04007ZM52.2515 20.0829C50.9345 20.0829 49.7347 19.8122 48.6522 19.271C47.5877 18.7297 46.7398 17.9449 46.1083 16.9166C45.4769 15.8701 45.1611 14.6162 45.1611 13.1549C45.1611 11.7296 45.4769 10.5027 46.1083 9.47438C46.7398 8.446 47.5607 7.66119 48.571 7.11994C49.5994 6.56065 50.6999 6.28101 51.8726 6.28101C53.767 6.28101 55.2374 6.84932 56.2838 7.98594C57.3483 9.10452 57.8805 10.593 57.8805 12.4512C57.8805 12.7038 57.8715 12.9474 57.8534 13.1819C57.8354 13.4165 57.8083 13.624 57.7722 13.8044H47.4073C47.5517 15.2838 48.0929 16.4024 49.0311 17.1601C49.9873 17.9179 51.151 18.2967 52.5221 18.2967C53.316 18.2967 54.0286 18.1885 54.6601 17.972C55.3096 17.7374 55.932 17.4307 56.5274 17.0519L57.3392 18.5132C56.6897 18.9462 55.941 19.3161 55.0931 19.6228C54.2631 19.9295 53.316 20.0829 52.2515 20.0829Z" fill="#1F1D25"/>
<path d="M38.1075 20.083C36.7183 20.083 35.6448 19.6861 34.8871 18.8922C34.1474 18.0803 33.7775 16.8986 33.7775 15.347V2.30293H29.0957V0.489746H35.9966V15.5094C35.9966 16.4656 36.2312 17.1602 36.7003 17.5932C37.1874 18.0262 37.8188 18.2427 38.5946 18.2427C39.3704 18.2427 40.1913 18.0443 41.0573 17.6473L41.6256 19.2982C41.0122 19.5507 40.4529 19.7402 39.9477 19.8665C39.4426 20.0108 38.8292 20.083 38.1075 20.083Z" fill="#1F1D25"/>
<path d="M23.8141 20.0831C23.2007 20.0831 22.6775 19.8756 22.2445 19.4606C21.8295 19.0276 21.6221 18.4774 21.6221 17.8098C21.6221 17.1242 21.8295 16.574 22.2445 16.159C22.6775 15.726 23.2007 15.5095 23.8141 15.5095C24.4275 15.5095 24.9417 15.726 25.3567 16.159C25.7897 16.574 26.0062 17.1242 26.0062 17.8098C26.0062 18.4774 25.7897 19.0276 25.3567 19.4606C24.9417 19.8756 24.4275 20.0831 23.8141 20.0831Z" fill="#1F1D25"/>
<path d="M8.07519 8.04007C6.99269 8.04007 6.02746 8.39188 5.1795 9.0955C4.33155 9.78108 3.80834 10.7734 3.60988 12.0724H11.9992C11.909 10.7192 11.5121 9.70892 10.8085 9.04138C10.1049 8.37384 9.19377 8.04007 8.07519 8.04007ZM8.39994 20.0829C7.0829 20.0829 5.88313 19.8122 4.80063 19.271C3.73617 18.7297 2.88821 17.9449 2.25676 16.9166C1.6253 15.8701 1.30957 14.6162 1.30957 13.1549C1.30957 11.7296 1.6253 10.5027 2.25676 9.47438C2.88821 8.446 3.70911 7.66119 4.71944 7.11994C5.74781 6.56065 6.84835 6.28101 8.02106 6.28101C9.91543 6.28101 11.3858 6.84932 12.4322 7.98594C13.4967 9.10452 14.0289 10.593 14.0289 12.4512C14.0289 12.7038 14.0199 12.9474 14.0019 13.1819C13.9838 13.4165 13.9568 13.624 13.9207 13.8044H3.55575C3.70009 15.2838 4.24134 16.4024 5.1795 17.1601C6.13571 17.9179 7.29939 18.2967 8.67056 18.2967C9.46439 18.2967 10.177 18.1885 10.8085 17.972C11.458 17.7374 12.0804 17.4307 12.6758 17.0519L13.4877 18.5132C12.8382 18.9462 12.0895 19.3161 11.2415 19.6228C10.4116 19.9295 9.46439 20.0829 8.39994 20.0829Z" fill="#1F1D25"/>
<path fill-rule="evenodd" clip-rule="evenodd" d="M23.8148 16.6368C23.4998 16.6368 23.2636 16.7349 23.0425 16.956C22.8745 17.124 22.7503 17.3687 22.7503 17.8095C22.7503 18.2103 22.8623 18.4666 23.0432 18.663C23.2564 18.8603 23.4937 18.9551 23.8148 18.9551C24.1442 18.9551 24.3669 18.856 24.56 18.663C24.7614 18.4616 24.8792 18.2077 24.8792 17.8095C24.8792 17.3832 24.7557 17.1439 24.5771 16.9728L24.5598 16.9562L24.5432 16.9389C24.3464 16.7335 24.1287 16.6368 23.8148 16.6368ZM21.4478 15.3614C22.0927 14.7165 22.9029 14.3816 23.8148 14.3816C24.7197 14.3816 25.5243 14.7121 26.1549 15.3614C26.8302 16.018 27.1344 16.8727 27.1344 17.8095C27.1344 18.7464 26.8192 19.5931 26.1547 20.2576C25.5178 20.8945 24.7122 21.2104 23.8148 21.2104C22.918 21.2104 22.1132 20.8956 21.465 20.2744L21.4476 20.2578L21.431 20.2405C20.7915 19.5731 20.4951 18.732 20.4951 17.8095C20.4951 16.8792 20.7859 16.0233 21.4478 15.3614Z" fill="#1F1D25"/>
<path fill-rule="evenodd" clip-rule="evenodd" d="M4.1835 6.12758C5.37663 5.47933 6.66136 5.15332 8.02073 5.15332C10.1501 5.15332 11.9488 5.80046 13.2552 7.21529C14.554 8.5839 15.1562 10.3694 15.1562 12.4512C15.1562 12.7305 15.1462 13.003 15.1258 13.2683C15.1052 13.5363 15.0731 13.7903 15.0261 14.0254L14.8448 14.9319H4.94503C5.15947 15.5162 5.48051 15.9528 5.88374 16.2796C6.61534 16.8578 7.52227 17.1691 8.67023 17.1691C9.3586 17.1691 9.94191 17.0757 10.434 16.9081C11.0007 16.7027 11.5458 16.4341 12.0701 16.1005L13.0799 15.4579L14.9781 18.8746L14.1128 19.4514C13.3783 19.9411 12.5473 20.3491 11.6284 20.6818C10.6518 21.0421 9.56966 21.2104 8.39961 21.2104C6.92324 21.2104 5.54858 20.9057 4.29602 20.2795L4.28922 20.276C3.03736 19.6395 2.03457 18.7101 1.29552 17.5065L1.29096 17.4991C0.534304 16.2452 0.181641 14.7811 0.181641 13.1548C0.181641 11.5594 0.536693 10.1201 1.29552 8.88426C2.0251 7.69608 2.98911 6.76815 4.1835 6.12758ZM8.07486 9.16759C7.26043 9.16759 6.54877 9.4242 5.89923 9.96318L5.88818 9.97235C5.57821 10.223 5.31679 10.5409 5.11487 10.9447H10.6659C10.5115 10.4507 10.2886 10.1027 10.0321 9.85933C9.57011 9.42105 8.95223 9.16759 8.07486 9.16759Z" fill="#1F1D25"/>
</svg>
